# xmcd
#
# Track frame offsets:
#	150
#	17095
#	31269
#	50930
#	67035
#	83354
#	100674
#	118017
#	132515
#	149621
#
# Disc length: 2191 seconds
#
# Revision: 1
# Processed by: cddbd v1.5.2PL0 Copyright (c) Steve Scherf et al.
# Submitted via: audiograbber 1.83.01
#
DISCID=8b088d0a
DTITLE=Lena Philipsson - Världen snurrar
DYEAR=2012
DGENRE=Pop
TTITLE0=Du följer väl med?
TTITLE1=Live Tomorrow
TTITLE2=Blir galen
TTITLE3=Idiot
TTITLE4=Vart tog du vägen?
TTITLE5=Igen och igen
TTITLE6=Världen snurrar
TTITLE7=Ett hjärta
TTITLE8=The botten is nådd
TTITLE9=Nästa säsong
EXTD=
EXTT0=
EXTT1=
EXTT2=
EXTT3=
EXTT4=
EXTT5=
EXTT6=
EXTT7=
EXTT8=
EXTT9=
PLAYORDER=
